<?xml version="1.0" encoding="utf-8"?>
<!-- Generator: Adobe Illustrator 15.1.0, SVG Export Plug-In . SVG Version: 6.00 Build 0)  -->
<!DOCTYPE svg PUBLIC "-//W3C//DTD SVG 1.1//EN" "http://www.w3.org/Graphics/SVG/1.1/DTD/svg11.dtd">
<svg version="1.1" id="Layer_1" xmlns="http://www.w3.org/2000/svg" xmlns:xlink="http://www.w3.org/1999/xlink" x="0px" y="0px"
	 width="67.945px" height="64.24px" viewBox="0 0 67.945 64.24" enable-background="new 0 0 67.945 64.24" xml:space="preserve">
<g>
	<path fill="#D75B36" d="M51.128,4.921c0.762,1.145,2.565,4.012,2.262,6.526c-0.305,2.515-4.112,5.059-4.112,5.059
		s3.377-1.046,4.419-0.97c1.041,0.077,2.719,1.928,2.719,1.928s-1.551,0.818-2.819,2.214c-1.269,1.398-7.873,3.052-7.873,3.052
		l-2.209,7.084l-1.583-2.69c0,0,1.307-2.639,0.569-5.231c-0.735-2.589-5.438-5.299-5.845-6.9c-0.408-1.599-2.595-2.151-2.595-2.151
		s1.616-1.027,3.725-0.672c2.108,0.352,2.96,2.313,2.96,2.313s0,0-0.104-0.817c-0.101-0.81,0.624-3.378,1.029-5.079
		c0.404-1.702,2.552-2.796,3.948-4.829c1.397-2.031,2.232-3.582,2.232-3.582L49.272,0C49.272,0,50.368,3.783,51.128,4.921z"/>
	<path fill="#D75B36" d="M16.167,25.61c4.6-0.577,9.764,8.198,8.539,12.137c-0.738,2.361-2.298,4.07-4.19,4.445
		C15.97,43.097,6.984,41.239,6.47,37.144C5.957,33.049,11.567,26.188,16.167,25.61z"/>
	<path fill="#D75B36" d="M7.484,49.192c0.375-4.625,10.232-7.041,13.842-5.034c2.16,1.202,3.516,3.079,3.498,5.009
		c-0.045,4.635-3.327,10.062-7.438,9.729C13.271,58.562,7.11,53.812,7.484,49.192z"/>
	<path fill="#D75B36" d="M34.64,56.937c-4.589,0.68-9.94-7.98-8.801-11.946c0.688-2.376,2.21-4.118,4.095-4.536
		c4.524-1.002,11.817-1.727,12.525,3.938C42.972,48.485,39.223,56.261,34.64,56.937z"/>
	<path fill="#D75B36" d="M42.857,32.601c-0.117,4.634-9.824,7.596-13.538,5.794c-2.226-1.08-3.681-2.879-3.771-4.807
		c-0.218-4.632,2.759-10.232,6.884-10.129C36.561,23.564,42.973,27.965,42.857,32.601z"/>
	<path fill="#D75B36" d="M25.423,22.076c0.792,2.144,1.105,2.234,1.105,2.234c-0.458-0.354-2.471,5.057-2.471,5.057
		s-2.8-1.158-2.239-4.465c0.556-3.308,3.87-7.294,3.87-7.294S24.392,19.293,25.423,22.076z"/>
	<path fill="#D75B36" d="M4.328,45.8c2.168,0.292,2.41,0.637,2.41,0.637c-0.441-0.377,4.457-3.435,4.457-3.435
		s-1.696-2.511-4.825-1.3C3.242,42.914,0,46.957,0,46.957S1.384,45.412,4.328,45.8z"/>
	<path fill="#D75B36" d="M24.703,59.763c-0.844-1.934-1.168-2.199-1.168-2.199c0.468,0.343,2.332-5.123,2.332-5.123
		s2.828,1.084,2.363,4.403c-0.47,3.319-3.672,7.396-3.672,7.396S25.883,62.485,24.703,59.763z"/>
	<path fill="#D75B36" d="M46.793,42.935c-2.34-0.237-2.522,0.264-2.488,0.141c0.155-0.557-3.681-4.258-3.681-4.258
		s2.164-2.117,4.987-0.305c2.819,1.81,5.188,6.42,5.188,6.42S49.745,43.235,46.793,42.935z"/>
	<path fill="#D75B36" d="M44.95,48.822c-0.809,1.427-0.739,1.312-0.739,1.312s3.406,0.824,5.642,1.367
		c2.23,0.547,3.934,0.939,4.026,1.686c0.094,0.741,1.047,1.775,2.662,1.184c1.617-0.592,0.947-0.383,0.947-0.383
		s1.996,1.105,3.771,2.117c1.78,1.019,4.775,4.965,4.775,4.965l1.911-2.666c0,0-2.725-3.619-2.395-4.279
		c0.331-0.658-1.681-1.893-2.493-1.791c-0.812,0.104-2.105,1.305-2.105,1.305s-1.552-0.846-3.076-1.479
		c-1.521-0.634-2.666-1.524-2.666-1.524s0.252-1.268-0.23-1.845c-0.486-0.572-1.65-1.63-2.828-1.149
		c-1.18,0.479-0.812,1.606-0.812,1.606l-6.611-2.185C44.728,47.062,45.757,47.399,44.95,48.822z"/>
	<path fill="#D75B36" d="M28.947,22.768c-0.658,1.941-1.244,1.031-1.244,1.031s0.222-1.522-0.235-3.526
		c-0.457-2.007-2.821-4.396-2.821-4.396s-2.665,0.125-3.677,3.967c-1.01,3.842-0.768,5.045-0.768,5.045l-4.799-0.441
		c0,0-0.943-2.583-1.76-4.132c-0.818-1.548-0.941-4.257,0.25-6.264c1.192-2.006,5.422-9.429,5.422-9.429l2.275-0.285
		c0,0,1.163,3.031,1.898,3.971c0.736,0.939,2.703,1.806,4.106,3.693c1.401,1.889,2.005,8.827,2.005,8.827
		S29.601,20.829,28.947,22.768z"/>
</g>
</svg>
