<?xml version="1.0" encoding="utf-8"?>
<!-- Generator: Adobe Illustrator 15.1.0, SVG Export Plug-In . SVG Version: 6.00 Build 0)  -->
<!DOCTYPE svg PUBLIC "-//W3C//DTD SVG 1.1//EN" "http://www.w3.org/Graphics/SVG/1.1/DTD/svg11.dtd">
<svg version="1.1" id="Layer_1" xmlns="http://www.w3.org/2000/svg" xmlns:xlink="http://www.w3.org/1999/xlink" x="0px" y="0px"
	 width="67.945px" height="64.24px" viewBox="0 0 67.945 64.24" enable-background="new 0 0 67.945 64.24" xml:space="preserve">
<g>
	<path fill="#FFFFFF" d="M18.673,0l1.421,0.176c0,0,0.835,1.551,2.233,3.582c1.396,2.033,3.544,3.127,3.948,4.829
		c0.405,1.701,1.13,4.269,1.029,5.079c-0.104,0.817-0.104,0.817-0.104,0.817s0.852-1.961,2.96-2.313
		c2.108-0.355,3.725,0.672,3.725,0.672s-2.187,0.552-2.595,2.151c-0.406,1.601-5.11,4.311-5.845,6.9
		c-0.737,2.592,0.569,5.231,0.569,5.231l-1.583,2.69l-2.209-7.084c0,0-6.604-1.654-7.873-3.052
		c-1.268-1.396-2.819-2.214-2.819-2.214s1.678-1.851,2.719-1.928c1.042-0.076,4.419,0.97,4.419,0.97s-3.808-2.544-4.113-5.059
		c-0.303-2.514,1.5-5.381,2.262-6.526C17.577,3.783,18.673,0,18.673,0z"/>
	<path fill="#FFFFFF" d="M61.475,37.143c-0.514,4.096-9.5,5.953-14.046,5.05c-1.892-0.376-3.452-2.085-4.19-4.446
		c-1.225-3.94,3.939-12.714,8.539-12.137C56.378,26.188,61.988,33.049,61.475,37.143z"/>
	<path fill="#FFFFFF" d="M50.559,58.895c-4.111,0.334-7.393-5.093-7.438-9.728c-0.018-1.93,1.338-3.807,3.498-5.009
		c3.609-2.006,13.467,0.41,13.842,5.035C60.835,53.812,54.674,58.561,50.559,58.895z"/>
	<path fill="#FFFFFF" d="M25.486,44.392c0.708-5.664,8.001-4.94,12.525-3.938c1.885,0.418,3.408,2.16,4.095,4.536
		c1.14,3.966-4.212,12.626-8.801,11.947C28.722,56.261,24.973,48.486,25.486,44.392z"/>
	<path fill="#FFFFFF" d="M35.512,23.46c4.125-0.103,7.102,5.497,6.884,10.129c-0.09,1.927-1.545,3.726-3.77,4.806
		c-3.714,1.802-13.421-1.159-13.538-5.794C24.972,27.965,31.385,23.564,35.512,23.46z"/>
	<path fill="#FFFFFF" d="M42.257,17.608c0,0,3.314,3.986,3.87,7.294c0.56,3.307-2.24,4.465-2.24,4.465s-2.012-5.411-2.47-5.057
		c0,0,0.313-0.09,1.105-2.234C43.553,19.293,42.257,17.608,42.257,17.608z"/>
	<path fill="#FFFFFF" d="M67.945,46.957c0,0-3.242-4.043-6.37-5.255c-3.129-1.211-4.825,1.3-4.825,1.3s4.898,3.058,4.457,3.435
		c0,0,0.242-0.345,2.41-0.637C66.561,45.412,67.945,46.957,67.945,46.957z"/>
	<path fill="#FFFFFF" d="M43.386,64.24c0,0-3.202-4.077-3.671-7.396c-0.465-3.32,2.363-4.404,2.363-4.404s1.864,5.466,2.332,5.124
		c0,0-0.324,0.265-1.168,2.199C42.062,62.486,43.386,64.24,43.386,64.24z"/>
	<path fill="#FFFFFF" d="M17.146,44.933c0,0,2.368-4.611,5.188-6.421c2.823-1.812,4.987,0.306,4.987,0.306s-3.836,3.7-3.681,4.257
		c0.035,0.123-0.148-0.378-2.488-0.14C18.2,43.235,17.146,44.933,17.146,44.933z"/>
	<path fill="#FFFFFF" d="M23.218,47.061l-6.612,2.185c0,0,0.367-1.127-0.812-1.607c-1.178-0.48-2.342,0.578-2.828,1.15
		c-0.483,0.577-0.231,1.845-0.231,1.845s-1.144,0.891-2.666,1.524c-1.524,0.634-3.076,1.479-3.076,1.479S5.7,52.436,4.887,52.333
		c-0.812-0.101-2.824,1.133-2.493,1.791C2.724,54.784,0,58.404,0,58.404l1.911,2.666c0,0,2.995-3.947,4.775-4.965
		c1.775-1.012,3.771-2.117,3.771-2.117s-0.67-0.21,0.947,0.382c1.615,0.592,2.568-0.442,2.662-1.184
		c0.093-0.746,1.796-1.138,4.027-1.685c2.235-0.543,5.641-1.367,5.641-1.367s0.069,0.115-0.739-1.312
		C22.188,47.399,23.218,47.061,23.218,47.061z"/>
	<path fill="#FFFFFF" d="M38.344,20.829c0,0,0.604-6.938,2.005-8.827c1.404-1.887,3.37-2.754,4.107-3.693
		c0.735-0.94,1.898-3.971,1.898-3.971l2.276,0.285c0,0,4.229,7.423,5.422,9.429c1.191,2.007,1.068,4.716,0.25,6.264
		c-0.817,1.549-1.76,4.132-1.76,4.132l-4.799,0.441c0,0,0.242-1.203-0.768-5.045c-1.011-3.842-3.676-3.967-3.676-3.967
		s-2.365,2.389-2.822,4.396c-0.457,2.004-0.235,3.526-0.235,3.526s-0.586,0.91-1.244-1.031
		C38.344,20.829,38.344,20.829,38.344,20.829z"/>
</g>
</svg>
