<?xml version="1.0" encoding="utf-8"?>
<!-- Generator: Adobe Illustrator 15.1.0, SVG Export Plug-In . SVG Version: 6.00 Build 0)  -->
<!DOCTYPE svg PUBLIC "-//W3C//DTD SVG 1.1//EN" "http://www.w3.org/Graphics/SVG/1.1/DTD/svg11.dtd">
<svg version="1.1" id="Layer_1" xmlns="http://www.w3.org/2000/svg" xmlns:xlink="http://www.w3.org/1999/xlink" x="0px" y="0px"
	 width="63.389px" height="38.917px" viewBox="0 0 63.389 38.917" enable-background="new 0 0 63.389 38.917" xml:space="preserve">
<g id="Dlm2p2.tif" display="none">
	
		<image display="inline" overflow="visible" enable-background="new    " width="358" height="339" id="Layer_0" xlink:href="7EFAE0EA.png"  transform="matrix(0.3134 0 0 0.3134 -23.428 -31.2651)">
	</image>
</g>
<path fill="#FFFFFF" d="M62.903,10.511C62.373,9.85,51.557,1.855,47.72,0.865c-2.178-0.562-10.637-0.866-17.491-0.866
	c-4.429,0-12.186,0.116-14.373,0.892c-3.28,1.164-14.723,8.472-15.407,9.616c-0.466,0.778-0.771,2.854,0.151,3.779
	c0.47,0.47,23.415,18.601,30.436,24.147l0.615,0.485l0.618-0.48c0.898-0.698,1.766-1.372,2.612-2.03l0.091,0.053l0.131-0.226
	c27.621-21.481,27.816-21.961,27.946-22.283C63.291,13.348,63.737,11.556,62.903,10.511z M16.525,2.775
	c1.35-0.479,6.601-0.776,13.704-0.776c7.786,0,15.249,0.353,16.991,0.802c2.885,0.745,11.109,6.582,13.491,8.437
	c-0.506,0.217-1.108,0.473-1.743,0.74L48.312,5.179l7.434,8.129c-0.505,0.201-0.935,0.366-1.222,0.464
	c-0.012,0.004-0.024,0.009-0.038,0.013c-0.266,0.078-0.547,0.156-0.839,0.234c-0.554,0.139-1.271,0.303-2.062,0.475l-2.145-2.942
	l1.429,3.095c-1.216,0.258-2.53,0.524-3.669,0.749l-2.053-4.789l0.546,5.083c-0.205,0.039-0.398,0.076-0.565,0.108
	c-0.326,0.014-1.737,0.075-3.774,0.144l-4.432-11.91l2.029,11.985c-0.957,0.028-1.986,0.055-3.061,0.079l-1.097-5.488l-0.709,5.524
	c-0.97,0.018-1.959,0.031-2.954,0.041l-0.675-2.224l-0.895,2.234c-0.896,0.003-1.786,0.002-2.659-0.004l-0.693-3.483l-0.851,3.466
	c-0.918-0.015-1.803-0.038-2.643-0.069l0.841-7.252l-3.29,7.124c-0.636-0.045-1.226-0.098-1.747-0.16
	c-0.081-0.014-0.59-0.102-1.366-0.244l5.014-10.381l-8.234,9.753c-0.992-0.206-2.029-0.433-3.001-0.67l1.766-3.654l-3.523,3.187
	c0,0,0,0-0.001,0c-0.388-0.113-0.752-0.227-1.063-0.339c-0.281-0.101-0.565-0.208-0.85-0.317l8.592-8.716L5.319,12.354
	c-1.031-0.435-1.964-0.855-2.647-1.17C5.025,9.441,13.503,3.848,16.525,2.775z M9.27,15.9c0.001,0,0.002,0,0.003,0
	c2.74,0.749,5.756,1.45,8.486,1.817l6.952,11.961L10.425,17.932l8.412,8.306C12.722,21.399,6.59,16.54,3.696,14.226
	C5.202,14.718,7.146,15.32,9.27,15.9z M20.214,17.962c4.732,0.331,12.01,0.24,17.525,0.093l-5.099,17.558
	c-0.012,0.009-0.022,0.019-0.034,0.027l-7.282-13.836l5.265,13.726c-0.1-0.079-0.202-0.159-0.304-0.24L20.214,17.962z
	 M37.888,18.052c2.273-0.061,4.241-0.13,5.574-0.182L35.06,32.329L37.888,18.052z M45.873,17.701
	c1.363-0.24,5.392-0.972,8.365-1.769c0.347-0.089,0.638-0.169,0.854-0.24c0.399-0.118,0.769-0.236,1.095-0.354
	c1.613-0.581,3.296-1.299,4.581-1.874c-2.129,1.795-9.452,7.568-17.25,13.667l3.902-7.807l-6.289,9.673
	c-1.117,0.872-2.232,1.742-3.335,2.603L45.873,17.701z"/>
</svg>
