<?xml version="1.0" encoding="utf-8"?>
<!-- Generator: Adobe Illustrator 15.1.0, SVG Export Plug-In . SVG Version: 6.00 Build 0)  -->
<!DOCTYPE svg PUBLIC "-//W3C//DTD SVG 1.1//EN" "http://www.w3.org/Graphics/SVG/1.1/DTD/svg11.dtd">
<svg version="1.1" id="Layer_1" xmlns="http://www.w3.org/2000/svg" xmlns:xlink="http://www.w3.org/1999/xlink" x="0px" y="0px"
	 width="101px" height="70px" viewBox="0 0 101 70" enable-background="new 0 0 101 70" xml:space="preserve">
<path fill="#FFFFFF" d="M94.893,44.198c-1.123-2.812-3.176-5.336-3.687-8.395c-0.578-3.461,3.701-6.703,2.982-9.789
	c-0.211-0.897-17.104,6.508-19.003,6.803c-1.163-3.673-5.295-6.038-6.832-9.823c-2.121,1.106-6.296,4.002-6.296,6.793
	c-0.734-0.245-1.48-0.491-2.241-0.744c1.236-4.085-5.182-10.619-8.547-13.528c-3.559-3.08-7.846,8.213-11.208,7.797
	c-3.866-0.47-4.214-12.607-3.912-15.529c-3.524,5.848-6.094,9.279-8.228,15.766c-5.516,0.905-21.115,5.984-22.911,12.253
	c0.43,2,1.856,3.357,3.885,3.89c-1.026,0.28-1.777,0.894-2.253,1.843c7.379,7.396,22.632,3.23,18.736-8.531
	c0.581,1.751,1.191,2.17,1.111,3.613c0.077-1.39,13.938-6.615,12.975-2.212c-1.681,7.683-7.458,8.786-13.239,5.848
	c-1.153,2.964-3.358,5.015-6.601,6.163c7.088,2.378,2.41,7.144,6.225,12.382c-0.375-0.516,1.083-8.044-0.591-10.691
	c5.838,1.523,11.714,2.25,17.734,1.442l-0.038,0.014c2.487,2.23,7.255,11.359,11.096,8.709c5.697-3.93,9.053-7.879,6.961-14.072
	c2.05-0.848,6.96,4.45,8.86,5.732c1.492-2.107,6.144-7.383,3.656-10.005C76.292,40.134,96.38,47.927,94.893,44.198
	C94.484,43.176,95.301,45.223,94.893,44.198z M16,36.847c-1,0-2-4.604,0-4.604C20,32.243,20,36.847,16,36.847
	C15,36.847,20,36.847,16,36.847z M67.725,36.69c-15.193-2.978-27.679-8.021-43.36-6.057c20.392-5.808,40.253,5.528,60.93,5.803
	C85.295,36.437,73.369,37.797,67.725,36.69C62.081,35.584,73.369,37.797,67.725,36.69z"/>
</svg>
