<?xml version="1.0" encoding="UTF-8" standalone="no"?>
<svg width="90px" height="52px" viewBox="0 0 90 52" version="1.1" xmlns="http://www.w3.org/2000/svg" xmlns:xlink="http://www.w3.org/1999/xlink" xmlns:sketch="http://www.bohemiancoding.com/sketch/ns">
    <title>Untitled</title>
    <description>Created with Sketch (http://www.bohemiancoding.com/sketch)</description>
    <defs></defs>
    <g id="Page-1" stroke="none" stroke-width="1" fill="none" fill-rule="evenodd" sketch:type="MSPage">
        <g id="fish" sketch:type="MSLayerGroup" transform="translate(0.000000, 1.000000)" fill="#CCCCCC">
            <path d="M89.893,36.198 C88.77,33.386 86.717,30.862 86.206,27.803 C85.628,24.342 89.907,21.1 89.188,18.014 C88.977,17.117 72.084,24.522 70.185,24.817 C69.022,21.144 64.89,18.779 63.353,14.994 C61.232,16.1 57.057,18.996 57.057,21.787 C56.323,21.542 55.577,21.296 54.816,21.043 C56.052,16.958 49.634,10.424 46.269,7.515 C42.71,4.435 38.423,15.728 35.061,15.312 C31.195,14.842 30.847,2.705 31.149,-0.217 C27.625,5.631 25.055,9.062 22.921,15.549 C17.405,16.454 1.806,21.533 0.01,27.802 C0.44,29.802 1.866,31.159 3.895,31.692 C2.869,31.972 2.118,32.586 1.642,33.535 C9.021,40.931 24.274,36.765 20.378,25.004 C20.959,26.755 21.569,27.174 21.489,28.617 C21.566,27.227 35.427,22.002 34.464,26.405 C32.783,34.088 27.006,35.191 21.225,32.253 C20.072,35.217 17.867,37.268 14.624,38.416 C21.712,40.794 17.034,45.56 20.849,50.798 C20.474,50.282 21.932,42.754 20.258,40.107 C26.096,41.63 31.972,42.357 37.992,41.549 L37.954,41.563 C40.441,43.793 45.209,52.922 49.05,50.272 C54.747,46.342 58.103,42.393 56.011,36.2 C58.061,35.352 62.971,40.65 64.871,41.932 C66.363,39.825 71.015,34.549 68.527,31.927 C71.292,32.134 91.38,39.927 89.893,36.198 C89.484,35.176 90.301,37.223 89.893,36.198 L89.893,36.198 Z M11,28.847 C10,28.847 9,24.243 11,24.243 C15,24.243 15,28.847 11,28.847 C10,28.847 15,28.847 11,28.847 L11,28.847 Z M62.725,28.69 C47.532,25.712 35.046,20.669 19.365,22.633 C39.757,16.825 59.618,28.161 80.295,28.436 C80.295,28.437 68.369,29.797 62.725,28.69 C57.081,27.584 68.369,29.797 62.725,28.69 L62.725,28.69 Z" id="Shape" sketch:type="MSShapeGroup"></path>
        </g>
    </g>
</svg>