<?xml version="1.0" encoding="utf-8"?>
<!-- Generator: Adobe Illustrator 15.1.0, SVG Export Plug-In . SVG Version: 6.00 Build 0)  -->
<!DOCTYPE svg PUBLIC "-//W3C//DTD SVG 1.1//EN" "http://www.w3.org/Graphics/SVG/1.1/DTD/svg11.dtd">
<svg version="1.1" id="Layer_1" xmlns="http://www.w3.org/2000/svg" xmlns:xlink="http://www.w3.org/1999/xlink" x="0px" y="0px"
	 width="38px" height="106.668px" viewBox="7.198 20.208 38 106.668" enable-background="new 7.198 20.208 38 106.668"
	 xml:space="preserve">
<g>
	<path fill="#138C8F" d="M15.826,56.531V32.023H7.68v24.508H15.826L15.826,56.531z M11.753,28.678c2.84,0,4.607-1.883,4.607-4.236
		c-0.052-2.404-1.768-4.234-4.554-4.234s-4.608,1.831-4.608,4.234c0,2.353,1.769,4.236,4.501,4.236H11.753L11.753,28.678z"/>
	<path fill="#138C8F" d="M20.334,56.531h8.145V42.844c0-0.732,0.054-1.465,0.269-1.986c0.59-1.464,1.93-2.98,4.181-2.98
		c2.947,0,4.126,2.249,4.126,5.542v13.111h8.146V42.479c0-7.528-4.02-11.031-9.38-11.031c-4.395,0-6.323,2.457-7.395,4.13h0.054
		v-3.555h-8.145C20.441,34.322,20.334,56.531,20.334,56.531L20.334,56.531z"/>
</g>
<g>
	<path fill="#9E1C10" d="M15.826,126.876v-24.508H7.68v24.508H15.826L15.826,126.876z M11.753,99.024
		c2.84,0,4.607-1.884,4.607-4.235c-0.052-2.404-1.768-4.234-4.554-4.234s-4.608,1.83-4.608,4.234c0,2.352,1.769,4.235,4.501,4.235
		H11.753L11.753,99.024z"/>
	<path fill="#9E1C10" d="M20.333,126.876h8.145V113.19c0-0.732,0.053-1.465,0.268-1.986c0.59-1.464,1.93-2.979,4.182-2.979
		c2.947,0,4.125,2.248,4.125,5.541v13.111h8.146v-14.052c0-7.528-4.02-11.031-9.381-11.031c-4.393,0-6.322,2.457-7.393,4.13h0.053
		v-3.555h-8.145C20.44,104.667,20.333,126.876,20.333,126.876L20.333,126.876z"/>
</g>
</svg>
