<?xml version="1.0" encoding="utf-8"?>
<!-- Generator: Adobe Illustrator 15.1.0, SVG Export Plug-In . SVG Version: 6.00 Build 0)  -->
<!DOCTYPE svg PUBLIC "-//W3C//DTD SVG 1.1//EN" "http://www.w3.org/Graphics/SVG/1.1/DTD/svg11.dtd">
<svg version="1.1" id="Layer_1" xmlns="http://www.w3.org/2000/svg" xmlns:xlink="http://www.w3.org/1999/xlink" x="0px" y="0px"
	 width="71.353px" height="81.141px" viewBox="0 0 71.353 81.141" enable-background="new 0 0 71.353 81.141" xml:space="preserve">
<path fill="#FFFFFF" d="M71.289,22.337v-0.203l-0.068-0.266l-0.009-0.075l-0.01-0.045l-0.02-0.046l-0.022-0.034l-0.004-0.098
	l-0.016-0.079l-0.025-0.062l-0.027-0.037v-0.037v-0.031l-0.016-0.038l-0.025-0.023l-0.026-0.008l-0.029-0.12l-0.032-0.113
	l-0.032-0.095l-0.023-0.071v-0.061l-0.038-0.076l-0.027-0.053l-0.037-0.114L70.786,20.5l-0.009-0.039l-0.006-0.067l-0.039-0.038
	l-0.019-0.034l-0.016-0.065l-0.113-0.143l-0.079-0.128v-0.04L70.49,19.91l-0.053-0.065l-0.25-0.39l-0.041-0.068l-0.034-0.052
	l-0.06-0.085l-0.134-0.136l-0.129-0.188l-0.449-0.476l-0.068-0.058l-0.054-0.035l-0.049-0.029l-0.029-0.008l-0.038-0.06
	l-0.031-0.039l-0.038-0.03h-0.028l-0.315-0.344l-0.196-0.133l-0.071-0.033l-0.051-0.021l-0.053-0.015h-0.029v-0.053l-0.092-0.041
	l-0.075-0.034l-0.053-0.038l-0.033-0.027l-0.038-0.003l-0.035-0.016l-0.06-0.053L38.878,0.632l-0.192-0.099l-0.189-0.084
	l-0.189-0.075l-0.193-0.068l-0.387-0.113L37.533,0.14l-0.187-0.038l-0.4-0.064L36.748,0.01l-0.194-0.008l-0.405-0.01L35.954,0
	L35.76,0.019l-0.415-0.026l-0.397,0.01l-0.402,0.035l-0.386,0.064l-0.394,0.091l-0.384,0.113l-0.381,0.144l-0.375,0.183
	L3.902,17.352L3.834,17.42l-0.091,0.03l-0.065,0.038l-0.058,0.03l-0.038,0.038h-0.07L3.463,17.57l-0.05,0.016l-0.032,0.046
	l-0.262,0.129l-0.068,0.041l-0.033,0.011l-0.023,0.009l-0.101,0.084l-0.08,0.078l-0.08,0.057l-0.068,0.054l-0.04,0.022H2.614H2.606
	v0.008l-0.012,0.015l-0.04,0.012l-0.023,0.003l-0.199,0.204l-0.057,0.031l-0.038,0.037l-0.019,0.031l-0.007,0.038l-0.198,0.191
	L1.95,18.715l-0.037,0.036L1.888,18.79l-0.006,0.036l-0.319,0.335L1.524,19.19L1.5,19.221l-0.036,0.045l-0.019,0.023l-0.008,0.029
	L1.43,19.354L1.369,19.38l-0.037,0.038l-0.025,0.037l-0.008,0.038l-0.035,0.029l-0.026,0.031l-0.024,0.022L1.199,19.61l-0.019,0.02
	l-0.004,0.025L1.169,19.69l-0.04,0.06l-0.035,0.045l-0.039,0.023l-0.023,0.015l-0.037,0.084l-0.023,0.068l-0.034,0.06L0.912,20.09
	l-0.055,0.064l-0.014,0.027v0.044L0.65,20.5v0.124l-0.2,0.404l-0.008,0.028l-0.011,0.036l-0.051,0.079L0.35,21.263l-0.019,0.084
	L0.32,21.421v0.078l-0.058,0.067L0.25,21.634l-0.056,0.272l-0.009,0.022v0.034l-0.012,0.053l-0.013,0.021l-0.004,0.021l-0.024,0.037
	v0.281l-0.07,0.136v0.33l-0.051,0.063L0,22.936v0.038l0.062,7.438L0,40.209L0.062,50.81L0,58.507l0.062,0.132v0.272v0.069
	l0.011,0.052l0.021,0.05l0.039,0.038v0.264l0.024,0.057l0.004,0.023l0.013,0.035l0.012,0.048l0.009,0.039l0.056,0.26l0.07,0.138
	l0.061,0.339l0.051,0.064l0.011,0.03L0.45,60.46l0.2,0.396l0.012,0.067l0.021,0.03l0.029,0.038l0.132,0.264l0.049,0.069l0.016,0.031
	l0.004,0.036l0.119,0.209l0.062,0.114l0.035,0.044l0.04,0.043l0.13,0.189l0.131,0.142l0.063,0.115l0.031,0.045l0.038,0.037
	l0.024,0.053l0.04,0.048l0.024,0.029h0.011H1.67l0.011,0.007l0.651,0.679l0.199,0.135l0.134,0.126l0.115,0.06l0.105,0.068
	l0.092,0.059l0.073,0.078h0.068l0.333,0.206l0.06,0.055l0.035,0.01l0.035,0.01l0.252,0.137h0.068l28.724,16.519l0.342,0.155
	l0.356,0.129l0.373,0.105l0.388,0.071l0.397,0.054l0.416,0.034h0.416l0.445-0.016l0.213,0.008h0.103l0.111,0.008h0.207h0.218
	l0.195-0.023l0.208-0.011l0.4-0.054l0.185-0.033l0.195-0.038l0.183-0.058l0.184-0.048l0.18-0.068l0.18-0.061l0.174-0.077
	l0.184-0.078l28.644-16.252v-0.058h0.053l0.329-0.209h0.026h0.019l0.05-0.018l0.01-0.014l0.009-0.004l0.02-0.027l0.195-0.146h0.058
	l0.049-0.036l0.008-0.01l0.012-0.01l0.03-0.011l0.022-0.037l0.012-0.031l0.091-0.033l0.033-0.02l0.038-0.014l0.053-0.039
	l0.053-0.021l0.133-0.129l0.183-0.138l0.052-0.038l0.046-0.036l0.029-0.038l0.009-0.022l0.2-0.138l0.022-0.066l0.038-0.04
	l0.029-0.021l0.038-0.008l0.189-0.193l0.026-0.063l0.039-0.037l0.025-0.026l0.041-0.008l0.062-0.122l0.033-0.053l0.034-0.034
	l0.026-0.061l0.038-0.04l0.008-0.021l0.022-0.007l0.039-0.006l0.025-0.094l0.034-0.075l0.034-0.051l0.041-0.044l0.125-0.135
	l0.125-0.201l0.03-0.067l0.022-0.052l0.016-0.055V61.47l0.053-0.065l0.045-0.053l0.027-0.044l0.012-0.03l0.056-0.141l0.068-0.13
	l0.02-0.053l0.033-0.039l0.019-0.048l0.027-0.033l0.038-0.037v-0.129l0.02-0.069l0.025-0.061l0.043-0.105l0.018-0.098l0.012-0.073
	l0.052-0.071l0.016-0.038v-0.023l0.072-0.263l0.022-0.072l0.02-0.049l0.01-0.056l0.009-0.029l0.011-0.144l0.058-0.129v-0.194
	l0.029-0.076l0.02-0.063l0.012-0.065l0.003-0.066V22.595L71.289,22.337z M40.572,46.088l16.259-9.79
	c1.119-0.512,2.442-0.507,3.598,0.022l0.744,0.348c1.532,0.703,2.527,2.255,2.527,3.95c0,0,0,0,0,0.006
	c-0.004,1.695-1.002,3.24-2.542,3.946L40.552,56.297c0,0,0.04,13.541,0.04,13.544c0,1.464-0.727,2.818-1.941,3.628
	c-1.225,0.811-2.76,0.953-4.109,0.375l-0.799-0.338c-1.601-0.686-2.642-2.25-2.647-3.991l-0.048-13.146L17.166,48.38v8.965
	c0,1.742-1.031,3.309-2.63,3.996l-0.81,0.351c-1.351,0.581-2.892,0.447-4.12-0.366c-1.227-0.809-1.957-2.171-1.954-3.646
	l0.062-15.64C7.714,41.987,7.652,41.3,7.652,41.3L7.72,24.896c0.007-1.693,1.007-3.24,2.548-3.943l0.744-0.34
	c1.355-0.613,2.907-0.5,4.16,0.302c1.248,0.808,1.994,2.172,1.994,3.661v13.582l13.903,8.012l-0.033-9.435
	c0-0.061,0.003-0.12,0.003-0.12l0.044-0.507l0.042-0.228c0,0.004,0.079-0.348,0.079-0.348l0.061-0.189
	c0.016-0.038,0.138-0.36,0.138-0.36l0.104-0.222l0.165-0.292l0.128-0.207l0.206-0.273c0.038-0.046,0.155-0.182,0.155-0.182
	l0.252-0.253c-0.002,0.003,0.071-0.071,0.071-0.071l0.093-0.084l0.405-0.303l0.072-0.046c0.009-0.014,0.518-0.286,0.518-0.286
	l23.254-12.863c1.124-0.515,2.44-0.506,3.583,0.012l0.745,0.337c1.544,0.711,2.546,2.262,2.546,3.957
	c0,1.698-0.999,3.253-2.542,3.957L40.552,39.922L40.572,46.088z"/>
</svg>
