<?xml version="1.0" encoding="utf-8"?>
<!-- Generator: Adobe Illustrator 15.1.0, SVG Export Plug-In . SVG Version: 6.00 Build 0)  -->
<!DOCTYPE svg PUBLIC "-//W3C//DTD SVG 1.1//EN" "http://www.w3.org/Graphics/SVG/1.1/DTD/svg11.dtd">
<svg version="1.1" id="Layer_1" xmlns="http://www.w3.org/2000/svg" xmlns:xlink="http://www.w3.org/1999/xlink" x="0px" y="0px"
	 width="109.264px" height="69px" viewBox="0 0 109.264 69" enable-background="new 0 0 109.264 69" xml:space="preserve">
<g>
	<path fill="#FFFFFF" d="M109.257,24.211c0-0.75-0.782-1.038-0.782-1.708c0-0.67,0-3.02-0.671-5.143
		c-0.671-2.123-3.912-9.278-4.695-10.06c-0.781-0.783-18.554-8.83-40.909-8.273c-22.355,0.56-38.507,8.888-39.122,9.503
		c-0.615,0.614-0.895,2.124-1.678,3.912c-0.258,0.59-0.553,1.734-0.832,3.069c-0.741,0.566-2.381,1.912-2.867,3.08
		c-0.374,0.226-0.898,0.598-1.074,0.984c-0.284,0.624-0.358,2.058-0.358,2.058s-0.397,0.303-0.529,0.87
		c-0.132,0.566,0.039,1.812,0.039,1.812s-0.227,0.245-0.302,0.623c-0.076,0.378,0.057,1.473,0.057,1.473s-0.265,0.434-0.265,0.66
		s0.019,1.359,0.019,1.359s-0.169,0.247-0.264,0.605c-0.095,0.358-0.038,1.132-0.038,1.132s-0.377,0.208-0.453,0.49
		c-0.076,0.284-0.039,1.512-0.039,1.512s-0.415,0.168-0.528,0.509c-0.113,0.339,0.17,1.51,0.17,1.51s-0.142,0.123-0.34,0.32
		c-0.198,0.199-0.339,0.85-0.339,1.077c0,0.227,0.302,0.549,0.302,0.549s-0.274,0.178-0.454,0.357
		c-0.18,0.178-0.302,0.754-0.302,0.943c0,0.188,0.302,0.641,0.302,0.641s-0.434,0.02-0.566,0.152c-0.132,0.133-0.491,0.791-0.491,1
		s0.151,0.641,0.151,0.641s-0.245,0.076-0.528,0.172c-0.283,0.094-0.642,0.867-0.642,1.113s0.038,0.51,0.038,0.51
		s-0.273,0.102-0.376,0.205c-0.103,0.102-0.574,0.779-0.574,1.002c0,0.221,0.073,0.529,0.073,0.529s-0.192,0.059-0.383,0.25
		c-0.192,0.191-0.56,0.781-0.56,0.898c0,0.119-0.014,0.355-0.014,0.355s-0.236,0.014-0.384,0.16
		c-0.147,0.148-0.663,0.619-0.752,0.885c-0.087,0.264-0.059,0.428-0.059,0.428s-0.087,0.074-0.324,0.176
		c-0.235,0.104-0.634,0.518-0.736,0.736c-0.103,0.223-0.163,0.488-0.163,0.488s-0.206,0.043-0.324,0.162
		c-0.118,0.115-0.544,0.514-0.544,0.75s0,0.309,0,0.309s-0.192,0.074-0.413,0.133c-0.221,0.061-0.597,0.496-0.663,0.561
		c-0.066,0.068-0.103,0.281-0.103,0.281s-0.148,0.043-0.442,0.162c-0.294,0.117-0.56,0.588-0.56,0.588S3.765,50.82,3.61,50.975
		s-0.826,0.973-0.826,0.973s-0.354,0.264-0.457,0.367c-0.103,0.104-0.147,0.311-0.147,0.311s-0.354,0.205-0.486,0.338
		c-0.132,0.133-0.604,0.691-0.604,0.811s0,0.191,0,0.191s-0.14,0.199-0.25,0.311c-0.11,0.109-0.266,0.5-0.354,0.721
		c-0.088,0.223-0.074,0.457-0.074,0.457s-0.191,0.426-0.265,0.75C0.073,56.527,0,57.207,0,57.457c0,0.252,0.361,0.805,0.456,0.898
		c0.096,0.098,0.265,0.236,0.265,0.236s0.045,0.295,0.148,0.547c0.103,0.248,0.788,0.891,1.002,1.105
		c0.213,0.211,1.075,0.365,1.075,0.365s0.162,0.119,0.339,0.295c0.177,0.178,1.444,0.473,1.812,0.383
		c0.368-0.088,0.766-0.189,0.766-0.189s0.147,0.162,0.545,0.354c0.398,0.189,1.857,0.471,2.269,0.264
		c0.413-0.205,0.649-0.545,0.649-0.545s0.28,0.281,0.619,0.383c0.338,0.105,1.68,0.16,1.931-0.088c0.25-0.25,0.53-2.918,0.53-2.918
		s0.317,1.732,0.56,1.975c0.243,0.244,2.011,0.582,2.225,0.369c0.213-0.215,0.692-1.076,0.692-1.076s0.029,0.252,0.472,0.516
		c0.442,0.266,1.635,0.441,2.018,0.236c0.384-0.207,1.002-0.928,1.002-0.928s0.147,0.117,0.574,0.189
		c0.428,0.074,1.372-0.133,1.622-0.219c0.25-0.09,0.648-0.4,0.648-0.4s0.339,0.135,0.604,0.135c0.265,0,1.031-0.162,1.238-0.236
		c0.206-0.072,0.604-0.383,0.604-0.383s1.238,0.104,1.4-0.059c0.162-0.164,0.441-0.34,0.441-0.34s0.914,0.045,1.017-0.059
		c0.072-0.072,0.865-0.49,1.341-0.742c0.153,3.861,0.391,8.152,0.694,8.457C30.119,66.541,31.572,68,32.354,68
		c0.783,0,8.83,0,9.613,0c0.782,0,1.396-0.508,1.9-1.012c0.503-0.502,0.894-1.564,0.894-1.564H85c0,0,0.896,1.117,1.677,1.9
		c0.783,0.783,4.472,0.67,7.714,0.67c3.241,0,4.304-0.391,5.028-1.115c0.728-0.729,1.343-2.572,1.343-2.572V51.229
		c0,0-0.419,0.057-0.671-0.195c-0.273-0.273,0-3.381,0-3.381s-6.315-1.844-10.171-5.701c-3.855-3.855-8.384-27.833-8.384-28.838
		c0-0.389-0.018-1.53-0.079-2.822l0.079-0.002c0,0,0.717,0.318,1.453,1.055c0.736,0.736,1.229,5.346,1.9,6.018
		c0.171,0.172-0.386,0.243-0.671,0.895c-0.633,1.449-0.336,7.041,0.336,7.712c0.669,0.669,6.594,2.234,9.725,2.977
		c3.129,0.742,10.953,1.382,13.078,0.785C109.48,29.134,109.257,24.96,109.257,24.211z M19.838,19.7
		c-0.098,0.684-0.18,1.331-0.237,1.896c-0.034-0.024-0.067-0.051-0.1-0.076v-0.54c0,0-0.697-0.551-0.697-1.663
		C18.803,18.774,19.315,19.163,19.838,19.7z M39.62,40.721c-2.236,5.031-10.396,6.707-10.396,6.707s0.391,3.41,0,3.801
		c0,0-0.637-0.738-1.432-0.738s-1.123,0.738-1.123,0.738s-0.015,0.355-0.168,0.355c-0.794,0-0.994,0.496-0.994,0.496
		s-0.298,0-0.794,0c-0.497,0-0.497,0.496-0.497,0.496s-0.695,0-1.193,0c-0.496,0-0.993,0.596-0.993,0.596s-0.296,0-1.092,0
		c-0.795,0-1.438,0.598-1.438,0.598s-0.052,0-0.846,0c-0.795,0-1.689,1.391-1.689,1.391s-0.05-0.348-0.497-0.795
		c-0.448-0.447-1.342-0.549-1.788-0.1c-0.447,0.447-0.696,0.895-0.696,0.895s-0.396-0.498-0.894-0.498c-0.497,0-1.192-0.496-1.688,0
		c-0.497,0.498-0.497,0.498-0.497,0.498s-0.447,0.346-0.795,0c-0.348-0.348-1.987,0.154-1.987,0.154s-0.297-0.453,0-0.752
		c0.299-0.297,1.292-1.09,1.292-1.09s0.248-0.35,0.894-0.996s0.646-0.646,0.646-0.646s0.546-0.445,0.844-0.742
		c0.298-0.301,0.298-1.193,0.298-1.193s0.349-0.148,0.795-0.596c0.447-0.447,0.397-0.994,0.397-0.994s0.347-0.248,0.795-0.695
		c0.447-0.447,0.298-0.992,0.298-0.992s0.249-0.447,0.695-0.895c0.448-0.447,0.198-1.191,0.198-1.191s0.349,0.049,0.795-0.398
		c0.447-0.447,0.298-1.49,0.298-1.49s0.1-0.199,0.596-0.695c0.496-0.496,0.099-1.488,0.099-1.488s0.497,0.098,0.497-0.697
		c0-0.793,0-0.793,0-0.793s0.646-0.436,1.047-0.836c0.401-0.4-0.353-1.545-0.353-1.545s0.562-0.568,0.655-0.928
		c0.095-0.358-0.774-1.68-0.774-1.68s1.001,0.076,1.189-0.396c0.189-0.472,0.174-0.849,0.174-1.057c0-0.208-1.364-0.775-1.364-0.775
		s1.187,0.253,1.364,0.076c0.177-0.177,0.562-0.793,0.562-1.077c0-0.284-0.641-0.812-0.641-0.812s0.594-0.065,0.717-0.189
		c0.123-0.122,0.254-1.142,0.113-1.284c-0.141-0.141-0.339-0.527-0.339-0.527l0.306-0.089c0.271,1.666,1.786,3.756,3.307,4.264
		c1.677,0.56,9.911-3.383,12.295-4.858c2.331-1.442,6.204-3.33,8.336-4.779C42.913,29.12,41.009,37.596,39.62,40.721z
		 M43.688,16.132c-0.48-0.48-2.28-2.124-2.28-2.124s-0.213-1.78,0.671-2.665c0.76-0.761,3.095-0.559,3.741-0.486
		c-0.227,1.114-0.396,2.244-0.396,3.151c0,0.646-0.192,2.163-0.514,4.163C44.453,17.213,43.923,16.366,43.688,16.132z M82.26,24.211
		c0,7.688-8.247,13.921-18.418,13.921c-10.171,0-18.418-6.233-18.418-13.921c0-4.479,2.81-8.453,7.156-11
		c-0.011-0.433-0.037-1.372-0.087-2.442l7.234-0.12c1.326-0.229,2.699-0.361,4.115-0.361c1.138,0,2.247,0.089,3.327,0.239
		l8.013-0.133c0.047,1.17,0.115,2.278,0.161,2.951C79.555,15.897,82.26,19.813,82.26,24.211z"/>
	<path fill="#FFFFFF" d="M74.367,24.564c0.305-0.304,2.198,0.662,3.689,0.662c1.485,0,3.505-0.717,4.088-0.72
		c0.073-0.462,0.115-0.929,0.115-1.404c0-7.076-8.247-12.813-18.418-12.813c-10.171,0-18.418,5.737-18.418,12.813
		c0,7.076,8.247,12.814,18.418,12.814c8.448,0,15.55-3.962,17.721-9.357c-0.657,0-3.014,0-3.705,0c-0.695,0-3.915-0.796-3.819-1.451
		C74.091,24.736,74.367,24.564,74.367,24.564z M50.444,18.256c1.697,0,3.073,0.95,3.073,2.124c0,1.172-1.376,2.124-3.073,2.124
		s-3.073-0.951-3.073-2.124C47.371,19.206,48.747,18.256,50.444,18.256z M47.016,25.226c0-1.173,1.376-2.124,3.075-2.124
		c1.697,0,3.074,0.951,3.074,2.124c0,1.173-1.377,2.124-3.074,2.124C48.393,27.35,47.016,26.399,47.016,25.226z M53.98,32.115
		c-1.697,0-3.073-1.067-3.073-2.385c0-1.318,1.376-2.385,3.073-2.385c1.698,0,3.075,1.067,3.075,2.385
		C57.055,31.048,55.678,32.115,53.98,32.115z M60.808,34.5c-1.695,0-3.072-1.068-3.072-2.385c0-1.317,1.377-2.385,3.072-2.385
		c1.698,0,3.075,1.068,3.075,2.385C63.883,33.432,62.506,34.5,60.808,34.5z M68.22,34.5c-1.697,0-3.074-1.068-3.074-2.385
		c0-1.317,1.377-2.385,3.074-2.385s3.074,1.068,3.074,2.385C71.294,33.432,69.917,34.5,68.22,34.5z M74.368,26.559
		c1.697,0,3.074,1.068,3.074,2.386c0,1.317-1.377,2.384-3.074,2.384s-3.074-1.066-3.074-2.384
		C71.294,27.627,72.671,26.559,74.368,26.559z M72.863,20.98c0,3.467-4.039,6.276-9.021,6.276s-9.021-2.81-9.021-6.276
		c0-1.352,0.629-2.595,1.676-3.619c-0.558,0.54-1.466,0.894-2.499,0.894c-1.698,0-3.074-0.951-3.074-2.124
		c0-1.173,1.375-2.124,3.074-2.124c1.697,0,3.074,0.951,3.074,2.124c0,0.42-0.183,0.809-0.488,1.14
		c0.734-0.691,1.657-1.28,2.73-1.714c-1.466-0.163-2.586-1.033-2.586-2.09c0-1.175,1.374-2.125,3.072-2.125s3.074,0.95,3.074,2.125
		c0,0.515-0.276,0.982-0.719,1.35c0.546-0.072,1.109-0.114,1.686-0.114c0.069,0,0.135,0.011,0.203,0.012
		c-0.371-0.352-0.599-0.78-0.599-1.249c0-1.175,1.377-2.125,3.074-2.125s3.074,0.95,3.074,2.125c0,0.843-0.719,1.566-1.751,1.91
		c0.591,0.205,1.159,0.437,1.667,0.723c-0.17-0.265-0.271-0.556-0.271-0.864c0-1.173,1.378-2.124,3.075-2.124
		c1.696,0,3.074,0.951,3.074,2.124c0,1.174-1.378,2.124-3.074,2.124c-0.487,0-0.942-0.085-1.353-0.226
		C72.149,18.198,72.863,19.53,72.863,20.98z"/>
	<ellipse fill="#FFFFFF" cx="63.842" cy="20.98" rx="8.019" ry="5.579"/>
</g>
</svg>
