<?xml version="1.0" encoding="utf-8"?>
<!-- Generator: Adobe Illustrator 15.1.0, SVG Export Plug-In . SVG Version: 6.00 Build 0)  -->
<!DOCTYPE svg PUBLIC "-//W3C//DTD SVG 1.1//EN" "http://www.w3.org/Graphics/SVG/1.1/DTD/svg11.dtd">
<svg version="1.1" id="Layer_1" xmlns="http://www.w3.org/2000/svg" xmlns:xlink="http://www.w3.org/1999/xlink" x="0px" y="0px"
	 width="109.264px" height="69px" viewBox="0 0 109.264 69" enable-background="new 0 0 109.264 69" xml:space="preserve">
<g>
	<path fill="#466E8C" d="M109.257,24.211c0-0.75-0.782-1.038-0.782-1.708s0-3.02-0.671-5.143s-3.912-9.278-4.695-10.06
		c-0.78-0.783-18.554-8.83-40.908-8.273C39.845-0.413,23.693,7.915,23.078,8.53c-0.615,0.614-0.896,2.124-1.679,3.912
		c-0.258,0.59-0.553,1.734-0.832,3.069c-0.74,0.566-2.381,1.912-2.866,3.08c-0.374,0.226-0.898,0.598-1.074,0.984
		c-0.284,0.624-0.358,2.058-0.358,2.058s-0.396,0.303-0.528,0.87c-0.133,0.566,0.038,1.812,0.038,1.812s-0.227,0.245-0.302,0.623
		c-0.076,0.378,0.058,1.473,0.058,1.473s-0.266,0.434-0.266,0.66s0.02,1.359,0.02,1.359s-0.169,0.247-0.265,0.605
		c-0.095,0.358-0.038,1.132-0.038,1.132s-0.377,0.208-0.452,0.49c-0.076,0.284-0.039,1.512-0.039,1.512s-0.415,0.168-0.528,0.509
		c-0.113,0.339,0.17,1.51,0.17,1.51s-0.142,0.123-0.34,0.32c-0.198,0.199-0.339,0.85-0.339,1.077s0.302,0.549,0.302,0.549
		s-0.274,0.179-0.454,0.357c-0.18,0.178-0.302,0.754-0.302,0.942s0.302,0.642,0.302,0.642s-0.434,0.02-0.566,0.151
		c-0.132,0.133-0.49,0.791-0.49,1s0.15,0.642,0.15,0.642s-0.245,0.075-0.527,0.172c-0.283,0.094-0.643,0.867-0.643,1.112
		c0,0.246,0.038,0.511,0.038,0.511s-0.272,0.103-0.376,0.205c-0.103,0.102-0.574,0.778-0.574,1.002c0,0.221,0.073,0.528,0.073,0.528
		s-0.191,0.06-0.383,0.25c-0.192,0.191-0.561,0.781-0.561,0.898c0,0.119-0.014,0.355-0.014,0.355s-0.236,0.014-0.384,0.16
		c-0.147,0.147-0.663,0.619-0.752,0.885c-0.087,0.264-0.06,0.428-0.06,0.428s-0.087,0.074-0.323,0.176
		c-0.235,0.104-0.635,0.518-0.736,0.736c-0.103,0.223-0.163,0.488-0.163,0.488s-0.206,0.043-0.324,0.162
		c-0.117,0.114-0.544,0.514-0.544,0.75c0,0.235,0,0.309,0,0.309s-0.191,0.074-0.413,0.133c-0.221,0.061-0.597,0.496-0.663,0.561
		c-0.065,0.068-0.103,0.281-0.103,0.281s-0.148,0.043-0.442,0.162c-0.294,0.117-0.56,0.588-0.56,0.588s-0.201,0.1-0.356,0.254
		c-0.154,0.155-0.825,0.974-0.825,0.974s-0.354,0.264-0.457,0.366c-0.104,0.104-0.147,0.312-0.147,0.312s-0.354,0.205-0.486,0.338
		c-0.132,0.134-0.604,0.691-0.604,0.812c0,0.119,0,0.19,0,0.19s-0.14,0.199-0.25,0.312c-0.11,0.108-0.266,0.5-0.354,0.721
		c-0.088,0.223-0.073,0.457-0.073,0.457s-0.191,0.426-0.266,0.75C0.073,56.527,0,57.207,0,57.457c0,0.252,0.36,0.805,0.456,0.898
		c0.096,0.098,0.265,0.235,0.265,0.235s0.045,0.295,0.148,0.548c0.103,0.247,0.788,0.891,1.002,1.104
		c0.213,0.211,1.074,0.364,1.074,0.364s0.162,0.119,0.34,0.295c0.177,0.179,1.443,0.474,1.812,0.384
		c0.368-0.088,0.766-0.188,0.766-0.188s0.147,0.161,0.546,0.354c0.397,0.189,1.856,0.471,2.269,0.264
		C9.09,61.51,9.326,61.17,9.326,61.17s0.279,0.281,0.618,0.383c0.339,0.105,1.681,0.16,1.932-0.088
		c0.25-0.25,0.529-2.918,0.529-2.918s0.317,1.732,0.561,1.975c0.243,0.244,2.011,0.582,2.225,0.369
		c0.213-0.215,0.692-1.076,0.692-1.076s0.029,0.252,0.472,0.517c0.442,0.267,1.636,0.44,2.019,0.235
		c0.384-0.207,1.002-0.928,1.002-0.928s0.146,0.117,0.574,0.189c0.428,0.074,1.371-0.133,1.621-0.219c0.25-0.09,0.648-0.4,0.648-0.4
		s0.339,0.135,0.604,0.135c0.265,0,1.03-0.162,1.237-0.236c0.206-0.071,0.604-0.383,0.604-0.383s1.237,0.104,1.399-0.059
		c0.162-0.164,0.441-0.34,0.441-0.34s0.914,0.045,1.017-0.059c0.072-0.072,0.865-0.49,1.341-0.742
		c0.153,3.86,0.392,8.151,0.694,8.457C30.119,66.541,31.572,68,32.354,68c0.783,0,8.83,0,9.613,0c0.782,0,1.396-0.508,1.9-1.012
		c0.503-0.502,0.894-1.564,0.894-1.564H85c0,0,0.896,1.117,1.677,1.9c0.783,0.783,4.472,0.67,7.714,0.67
		c3.241,0,4.304-0.391,5.028-1.115c0.728-0.729,1.343-2.572,1.343-2.572V51.229c0,0-0.419,0.058-0.671-0.194
		c-0.273-0.273,0-3.382,0-3.382s-6.315-1.844-10.171-5.7c-3.855-3.854-8.384-27.833-8.384-28.838c0-0.389-0.019-1.53-0.079-2.822
		l0.079-0.002c0,0,0.717,0.318,1.452,1.055c0.736,0.736,1.229,5.346,1.9,6.018c0.171,0.172-0.386,0.243-0.671,0.895
		c-0.633,1.449-0.336,7.041,0.336,7.712c0.669,0.669,6.594,2.234,9.725,2.978c3.13,0.742,10.953,1.382,13.078,0.785
		C109.48,29.134,109.257,24.96,109.257,24.211z M19.838,19.7c-0.098,0.684-0.18,1.331-0.237,1.896
		c-0.034-0.024-0.066-0.051-0.1-0.076v-0.54c0,0-0.697-0.551-0.697-1.663C18.803,18.774,19.315,19.163,19.838,19.7z M39.62,40.721
		c-2.236,5.031-10.396,6.707-10.396,6.707s0.392,3.41,0,3.801c0,0-0.637-0.737-1.432-0.737s-1.123,0.737-1.123,0.737
		s-0.016,0.355-0.168,0.355c-0.794,0-0.994,0.496-0.994,0.496s-0.298,0-0.794,0c-0.497,0-0.497,0.496-0.497,0.496s-0.695,0-1.193,0
		c-0.496,0-0.993,0.596-0.993,0.596s-0.296,0-1.092,0c-0.795,0-1.438,0.598-1.438,0.598s-0.052,0-0.847,0s-1.688,1.392-1.688,1.392
		s-0.05-0.349-0.497-0.795c-0.448-0.447-1.342-0.55-1.788-0.101c-0.447,0.447-0.696,0.896-0.696,0.896s-0.396-0.498-0.894-0.498
		c-0.497,0-1.192-0.496-1.688,0c-0.497,0.498-0.497,0.498-0.497,0.498s-0.446,0.346-0.795,0c-0.348-0.349-1.986,0.153-1.986,0.153
		s-0.297-0.453,0-0.752c0.299-0.297,1.292-1.09,1.292-1.09s0.248-0.35,0.894-0.996c0.646-0.646,0.646-0.646,0.646-0.646
		s0.546-0.445,0.844-0.742c0.298-0.301,0.298-1.192,0.298-1.192s0.349-0.148,0.795-0.597c0.447-0.446,0.397-0.993,0.397-0.993
		s0.347-0.248,0.795-0.695c0.446-0.447,0.298-0.992,0.298-0.992s0.249-0.447,0.695-0.895c0.447-0.447,0.197-1.191,0.197-1.191
		s0.35,0.049,0.795-0.398c0.447-0.447,0.299-1.49,0.299-1.49s0.1-0.199,0.596-0.694c0.496-0.496,0.099-1.488,0.099-1.488
		s0.497,0.099,0.497-0.696c0-0.793,0-0.793,0-0.793s0.646-0.437,1.047-0.837c0.401-0.399-0.353-1.545-0.353-1.545
		s0.562-0.567,0.655-0.928c0.095-0.358-0.774-1.68-0.774-1.68s1.001,0.076,1.189-0.396c0.188-0.472,0.174-0.849,0.174-1.057
		c0-0.208-1.364-0.775-1.364-0.775s1.187,0.253,1.364,0.076c0.177-0.177,0.562-0.793,0.562-1.077c0-0.284-0.641-0.812-0.641-0.812
		s0.594-0.065,0.717-0.189c0.123-0.122,0.254-1.142,0.113-1.284c-0.142-0.141-0.339-0.527-0.339-0.527l0.306-0.089
		c0.271,1.666,1.786,3.756,3.307,4.264c1.678,0.56,9.911-3.383,12.295-4.858c2.331-1.442,6.204-3.33,8.336-4.779
		C42.913,29.12,41.009,37.596,39.62,40.721z M43.688,16.132c-0.479-0.48-2.279-2.124-2.279-2.124s-0.214-1.78,0.671-2.665
		c0.76-0.761,3.095-0.559,3.74-0.486c-0.227,1.114-0.396,2.244-0.396,3.151c0,0.646-0.192,2.163-0.514,4.163
		C44.453,17.213,43.923,16.366,43.688,16.132z M82.26,24.211c0,7.688-8.247,13.921-18.418,13.921s-18.418-6.233-18.418-13.921
		c0-4.479,2.81-8.453,7.156-11c-0.012-0.433-0.037-1.372-0.087-2.442l7.233-0.12c1.326-0.229,2.699-0.361,4.115-0.361
		c1.138,0,2.247,0.089,3.327,0.239l8.013-0.133c0.047,1.17,0.115,2.278,0.161,2.951C79.555,15.897,82.26,19.813,82.26,24.211z"/>
	<path fill="#466E8C" d="M74.367,24.564c0.305-0.304,2.197,0.662,3.688,0.662c1.485,0,3.505-0.717,4.088-0.72
		c0.073-0.462,0.115-0.929,0.115-1.404c0-7.076-8.247-12.813-18.418-12.813s-18.418,5.737-18.418,12.813
		c0,7.076,8.247,12.814,18.418,12.814c8.448,0,15.55-3.962,17.721-9.357c-0.657,0-3.014,0-3.705,0c-0.694,0-3.915-0.796-3.818-1.451
		C74.091,24.736,74.367,24.564,74.367,24.564z M50.444,18.256c1.697,0,3.073,0.95,3.073,2.124c0,1.172-1.376,2.124-3.073,2.124
		c-1.696,0-3.072-0.951-3.072-2.124C47.371,19.206,48.747,18.256,50.444,18.256z M47.016,25.226c0-1.173,1.376-2.124,3.075-2.124
		c1.697,0,3.074,0.951,3.074,2.124c0,1.173-1.377,2.124-3.074,2.124C48.393,27.35,47.016,26.399,47.016,25.226z M53.98,32.115
		c-1.696,0-3.072-1.067-3.072-2.385s1.376-2.385,3.072-2.385c1.698,0,3.075,1.067,3.075,2.385S55.678,32.115,53.98,32.115z
		 M60.808,34.5c-1.695,0-3.072-1.068-3.072-2.385c0-1.317,1.377-2.385,3.072-2.385c1.698,0,3.075,1.068,3.075,2.385
		C63.883,33.432,62.506,34.5,60.808,34.5z M68.22,34.5c-1.697,0-3.074-1.068-3.074-2.385c0-1.317,1.377-2.385,3.074-2.385
		s3.074,1.068,3.074,2.385C71.294,33.432,69.917,34.5,68.22,34.5z M74.368,26.559c1.696,0,3.073,1.068,3.073,2.386
		c0,1.317-1.377,2.384-3.073,2.384c-1.697,0-3.074-1.066-3.074-2.384C71.294,27.627,72.671,26.559,74.368,26.559z M72.863,20.98
		c0,3.467-4.038,6.276-9.021,6.276s-9.021-2.81-9.021-6.276c0-1.352,0.63-2.595,1.677-3.619c-0.559,0.54-1.467,0.894-2.499,0.894
		c-1.698,0-3.074-0.951-3.074-2.124c0-1.173,1.375-2.124,3.074-2.124c1.696,0,3.073,0.951,3.073,2.124
		c0,0.42-0.183,0.809-0.487,1.14c0.733-0.691,1.657-1.28,2.729-1.714c-1.466-0.163-2.586-1.033-2.586-2.09
		c0-1.175,1.374-2.125,3.072-2.125s3.074,0.95,3.074,2.125c0,0.515-0.276,0.982-0.72,1.35c0.547-0.072,1.109-0.114,1.687-0.114
		c0.069,0,0.135,0.011,0.203,0.012c-0.371-0.352-0.6-0.78-0.6-1.249c0-1.175,1.377-2.125,3.074-2.125s3.074,0.95,3.074,2.125
		c0,0.843-0.719,1.566-1.751,1.91c0.591,0.205,1.159,0.437,1.667,0.723c-0.17-0.265-0.271-0.556-0.271-0.864
		c0-1.173,1.379-2.124,3.075-2.124s3.074,0.951,3.074,2.124c0,1.174-1.378,2.124-3.074,2.124c-0.486,0-0.941-0.085-1.353-0.226
		C72.149,18.198,72.863,19.53,72.863,20.98z"/>
	<ellipse fill="#466E8C" cx="63.842" cy="20.98" rx="8.019" ry="5.579"/>
</g>
</svg>
