<?xml version="1.0" encoding="utf-8"?>
<!-- Generator: Adobe Illustrator 15.1.0, SVG Export Plug-In . SVG Version: 6.00 Build 0)  -->
<!DOCTYPE svg PUBLIC "-//W3C//DTD SVG 1.1//EN" "http://www.w3.org/Graphics/SVG/1.1/DTD/svg11.dtd">
<svg version="1.1" id="Layer_1" xmlns="http://www.w3.org/2000/svg" xmlns:xlink="http://www.w3.org/1999/xlink" x="0px" y="0px"
	 width="63.002px" height="69.141px" viewBox="0 0 63.002 69.141" enable-background="new 0 0 63.002 69.141" xml:space="preserve">
<g>
	<g>
		<path fill="#138C8F" d="M18.454,45.631c-0.234,0-0.481-0.016-0.743-0.047c-1.253-0.148-3.357-1.215-5.214-2.153
			c-0.598-0.303-1.188-0.602-1.768-0.884c2.856-1.056,5.789-1.95,7.31-1.95c0.094,0,0.182,0.004,0.263,0.014
			c2.583,0.308,2.781,1.607,2.635,2.84C20.753,44.978,20.011,45.631,18.454,45.631z"/>
	</g>
	<g>
		<path fill="#138C8F" d="M20.733,35.524c-0.551,0-1.18-0.104-1.871-0.309c-1.507-0.444-3.698-2.011-5.816-3.523
			c-0.8-0.572-1.589-1.135-2.364-1.659c2.616-0.453,5.603-0.863,7.85-0.863c1.148,0,1.753,0.108,2.059,0.198
			c3.313,0.98,3.204,2.763,2.833,4.018C22.857,35.302,21.617,35.524,20.733,35.524z"/>
	</g>
	<g>
		<path fill="#138C8F" d="M26.697,25.801c-0.694,0-1.51-0.23-2.423-0.687c-1.408-0.701-3.294-2.625-5.118-4.484
			c-0.689-0.702-1.368-1.394-2.04-2.044c7.015,0.025,9.242,0.754,9.878,1.071c0.889,0.444,2.025,1.187,2.378,2.203
			c0.226,0.648,0.127,1.404-0.292,2.244C28.236,25.801,27.078,25.801,26.697,25.801z"/>
	</g>
	<g>
		<path fill="#138C8F" d="M33.835,17.77c-0.982,0-1.818-0.966-2.345-1.776c-0.728-1.117-1.292-3.38-1.837-5.568
			c-0.156-0.627-0.311-1.248-0.471-1.852c2.913,1.763,5.613,3.648,6.351,4.784c0.646,0.992,0.916,1.867,0.784,2.532
			c-0.104,0.52-0.473,0.99-1.103,1.398C34.726,17.608,34.26,17.77,33.835,17.77z"/>
	</g>
	<path fill="#138C8F" d="M49.679,5.327C33.638-4.935,15.085,0.826,5.877,12.453c-9.209,11.626-5.692,24.583-2.209,30.444
		c7.129,11.997,17.519,12.592,17.519,12.592c-0.38,11.878-4.979,13.651-4.979,13.651h3.256c0,0,3.833-7.541,4.024-13.292
		c0.19-5.742-0.392-8.409,0.956-18.161c0,0,3.067-8.77,9.387-14.517c6.318-5.748,11.876-8.787,11.876-8.787
		S25.604,34.399,29.425,40.537c1.818,2.924,16.281-6.257,16.281-6.257S37.664,44.832,30.38,46.938
		c-2.722,0.791-1.912,7.362-1.531,9.857c0.387,2.487,4.595,12.344,4.595,12.344h2.494c0,0-4.599-8.312-4.311-12.145
		c0,0,12.396,1.724,23.799-9.296C66.829,36.681,65.709,15.586,49.679,5.327z M24.226,9.491c1.861,1.459,1.797,3.02,0.831,4.25
		c-0.961,1.228-2.463,1.658-4.325,0.199c-1.858-1.462-3.78-6.175-5.654-6.985C15.078,6.955,22.366,8.029,24.226,9.491z
		 M12.053,20.295c2.148,0.628,2.641,2.023,2.229,3.441c-0.417,1.417-1.585,2.325-3.731,1.697c-2.147-0.626-5.492-4.094-7.427-4.145
		C3.123,21.289,9.905,19.666,12.053,20.295z M2.926,36.758c0,0,5.333-2.748,7.261-2.661c1.922,0.084,2.625,1.147,2.566,2.417
		c-0.057,1.271-0.845,2.27-2.771,2.187C8.06,38.611,4.552,36.404,2.926,36.758z M22.924,43.685
		c-0.298,2.472-1.906,4.311-5.451,3.885c-3.546-0.422-9.698-5.2-12.753-4.729c0,0,10.278-4.642,13.821-4.218
		C22.086,39.046,23.217,41.212,22.924,43.685z M25.342,33.954c-0.792,2.674-2.997,4.378-7.046,3.181
		c-4.047-1.195-10.343-7.75-13.985-7.857c0,0,12.802-3.022,16.848-1.825C25.209,28.65,26.133,31.279,25.342,33.954z M30.87,24.998
		c-1.242,2.495-3.714,3.789-7.489,1.906c-3.778-1.881-8.838-9.429-12.406-10.172c0,0,13.13-0.749,16.911,1.135
		C31.665,19.751,32.116,22.503,30.87,24.998z M36.308,18.966c-2.049,1.329-4.482,1.211-6.495-1.882
		C27.797,13.99,27.333,6.06,24.967,3.92c0,0,10.232,5.253,12.243,8.349C39.224,15.36,38.353,17.635,36.308,18.966z M42.526,14.816
		c-1.485,0.484-2.977,0.012-3.711-2.238c-0.735-2.247,0.285-7.235-0.823-8.948c0,0,5.469,4.941,6.202,7.188
		C44.933,13.066,44.013,14.33,42.526,14.816z M48.765,15.394c2.123-0.714,9.022,0.812,9.022,0.812
		c-1.938,0.104-5.093,3.825-7.216,4.539c-2.12,0.715-3.348-0.208-3.844-1.684C46.233,17.583,46.649,16.109,48.765,15.394z
		 M43.815,21.106c2.568-0.149,9.764,3.634,9.764,3.634c-2.176-0.471-6.811,2.704-9.377,2.854c-2.574,0.152-3.651-1.241-3.754-3.032
		C40.335,22.77,41.251,21.259,43.815,21.106z M38.36,34.364c-2.573,0.168-3.658-1.218-3.775-3.009
		c-0.117-1.792,0.78-3.309,3.346-3.476c2.575-0.167,9.789,3.571,9.789,3.571C45.539,30.994,40.929,34.197,38.36,34.364z
		 M33.601,54.491c-2.874-0.608-3.64-2.469-3.218-4.469c0.426-2.004,1.88-3.392,4.755-2.785c2.868,0.609,9.646,6.94,9.646,6.94
		C42.528,53.004,36.47,55.099,33.601,54.491z M42.616,48.006c-2.495-0.613-3.114-2.266-2.686-4.007
		c0.428-1.741,1.745-2.917,4.24-2.302c2.496,0.613,8.254,6.358,8.254,6.358C50.481,46.961,45.121,48.622,42.616,48.006z
		 M49.974,41.965c-2.568,0.113-3.629-1.296-3.709-3.09c-0.08-1.793,0.854-3.29,3.422-3.4c2.578-0.112,9.713,3.781,9.713,3.781
		C57.224,38.753,52.543,41.854,49.974,41.965z M52.783,32c-2.167,0.19-3.106-0.96-3.242-2.47c-0.131-1.51,0.601-2.809,2.767-2.998
		c2.166-0.188,8.327,2.833,8.327,2.833C58.787,29.021,54.95,31.812,52.783,32z"/>
	<g>
		<path fill="#138C8F" d="M41.509,12.989c-0.302,0-0.568-0.347-0.792-1.032c-0.196-0.598-0.204-1.786-0.19-2.946
			c0.931,1.052,1.613,1.953,1.769,2.43c0.199,0.605,0.185,0.995,0.104,1.156c-0.08,0.163-0.344,0.271-0.494,0.319
			C41.759,12.963,41.621,12.989,41.509,12.989z"/>
	</g>
	<g>
		<path fill="#138C8F" d="M34.882,52.604c-0.357,0-0.648-0.023-0.867-0.07c-1.688-0.357-1.893-1.068-1.675-2.099
			c0.263-1.237,0.921-1.343,1.519-1.343c0.26,0,0.551,0.034,0.867,0.102c0.84,0.179,2.631,1.381,4.588,2.924
			c-0.267,0.037-0.533,0.074-0.797,0.112C37.226,52.414,35.89,52.604,34.882,52.604z"/>
	</g>
	<g>
		<path fill="#138C8F" d="M44.067,46.147c-0.523,0-0.818-0.046-0.975-0.084c-0.611-0.15-1.033-0.38-1.189-0.647
			c-0.16-0.273-0.088-0.706-0.03-0.938c0.215-0.874,0.601-0.945,1.044-0.945c0.227,0,0.486,0.036,0.775,0.106
			c0.623,0.152,1.922,1.062,3.392,2.271c-0.039,0.005-0.077,0.009-0.116,0.013C45.95,46.033,44.897,46.147,44.067,46.147z"/>
	</g>
	<g>
		<path fill="#138C8F" d="M49.688,39.972c-1.162,0-1.393-0.4-1.428-1.188c-0.011-0.237,0.004-0.675,0.215-0.912
			c0.203-0.229,0.676-0.374,1.297-0.4l0,0c0.709,0,2.193,0.503,3.896,1.226c-0.037,0.016-0.074,0.031-0.111,0.047
			c-1.343,0.557-2.863,1.188-3.67,1.223L49.688,39.972z"/>
	</g>
	<g>
		<path fill="#138C8F" d="M37.948,32.378c-1.1,0-1.316-0.372-1.367-1.152c-0.016-0.24-0.012-0.546,0.193-0.789
			c0.197-0.231,0.666-0.296,1.285-0.296c0.002,0,0.002,0,0.002,0c0.783,0,2.283,0.352,3.922,1.01
			c-0.037,0.016-0.073-0.034-0.11-0.019c-1.329,0.586-2.835,1.219-3.642,1.271C38.134,32.408,38.039,32.378,37.948,32.378z"/>
	</g>
	<g>
		<path fill="#138C8F" d="M43.827,25.606c-1.119,0-1.337-0.374-1.383-1.158c-0.016-0.251-0.01-0.688,0.203-0.927
			c0.201-0.229,0.67-0.381,1.287-0.417c0,0,0,0,0.002,0c0.76,0,2.264,0.499,3.904,1.169c-0.035,0.015-0.07,0.029-0.105,0.045
			c-1.332,0.578-2.844,1.232-3.65,1.28C43.996,25.604,43.91,25.606,43.827,25.606z"/>
	</g>
	<g>
		<path fill="#138C8F" d="M49.213,18.993c-0.194,0-0.397,0-0.589-0.568c-0.15-0.453-0.262-0.783,0.781-1.137
			c0.008-0.002,0.261-0.085,1-0.085c0.548,0,1.169,0.042,1.811,0.108c-0.831,0.66-1.748,1.358-2.281,1.539
			C49.584,18.968,49.349,18.993,49.213,18.993z"/>
	</g>
	<g>
		<path fill="#138C8F" d="M52.328,30.021c-0.647,0-0.747-0.134-0.795-0.669c-0.04-0.458-0.063-0.738,0.946-0.826h0.002
			c0.498,0,1.406,0.242,2.484,0.618c-0.895,0.412-1.846,0.819-2.355,0.863C52.511,30.017,52.418,30.021,52.328,30.021z"/>
	</g>
	<g>
		<path fill="#138C8F" d="M22.977,12.861c-0.089,0-0.425-0.036-1.011-0.496c-0.492-0.387-1.158-1.368-1.789-2.34
			c1.354,0.357,2.42,0.729,2.813,1.038c0.506,0.396,0.708,0.727,0.729,0.903c0.022,0.188-0.157,0.438-0.235,0.538
			C23.298,12.742,23.128,12.861,22.977,12.861z"/>
	</g>
	<g>
		<path fill="#138C8F" d="M11.831,23.635c-0.198,0-0.447-0.042-0.72-0.121c-0.504-0.147-1.339-0.694-2.138-1.25
			c0.617-0.069,1.207-0.113,1.716-0.113c0.566,0,0.779,0.058,0.802,0.063c1.06,0.311,0.977,0.599,0.87,0.962
			C12.226,23.635,12.078,23.635,11.831,23.635z"/>
	</g>
	<g>
		<path fill="#138C8F" d="M10.068,36.702c-0.278-0.013-0.73-0.146-1.231-0.322c0.553-0.18,0.997-0.286,1.258-0.286
			c0.473,0.021,0.641,0.125,0.663,0.141c0-0.001-0.001-0.001-0.001-0.001c-0.01,0,0.004,0.069-0.001,0.188
			c-0.006,0.128-0.028,0.199-0.038,0.224c0,0-0.001,0-0.002,0c-0.019,0-0.167,0.062-0.513,0.062L10.068,36.702z"/>
	</g>
</g>
</svg>
