<?xml version="1.0" encoding="utf-8"?>
<!-- Generator: Adobe Illustrator 15.1.0, SVG Export Plug-In . SVG Version: 6.00 Build 0)  -->
<!DOCTYPE svg PUBLIC "-//W3C//DTD SVG 1.1//EN" "http://www.w3.org/Graphics/SVG/1.1/DTD/svg11.dtd">
<svg version="1.1" id="Layer_1" xmlns="http://www.w3.org/2000/svg" xmlns:xlink="http://www.w3.org/1999/xlink" x="0px" y="0px"
	 width="38px" height="81.042px" viewBox="81 172.747 38 81.042" enable-background="new 81 172.747 38 81.042"
	 xml:space="preserve">
<path fill="#138C8F" d="M119,176.403c-1.397,0.62-2.9,1.039-4.478,1.228c1.609-0.965,2.847-2.493,3.428-4.313
	c-1.506,0.894-3.174,1.542-4.95,1.892c-1.422-1.516-3.448-2.462-5.69-2.462c-4.306,0-7.796,3.49-7.796,7.796
	c0,0.611,0.069,1.206,0.202,1.776c-6.479-0.324-12.224-3.429-16.069-8.146c-0.671,1.151-1.056,2.491-1.056,3.92
	c0,2.704,1.376,5.091,3.468,6.489c-1.278-0.041-2.48-0.392-3.531-0.976c0,0.032,0,0.065,0,0.098c0,3.777,2.687,6.929,6.253,7.645
	c-0.654,0.179-1.343,0.273-2.054,0.273c-0.502,0-0.991-0.049-1.467-0.14c0.992,3.098,3.871,5.352,7.283,5.414
	c-2.668,2.092-6.029,3.338-9.682,3.338c-0.629,0-1.25-0.037-1.86-0.109c3.45,2.212,7.548,3.503,11.951,3.503
	c14.34,0,22.182-11.88,22.182-22.182c0-0.338-0.007-0.675-0.022-1.009C116.634,179.338,117.955,177.965,119,176.403z"/>
<path fill="#9E1C10" d="M119,226.563c-1.397,0.62-2.9,1.039-4.478,1.228c1.609-0.965,2.847-2.493,3.428-4.313
	c-1.506,0.894-3.174,1.542-4.95,1.892c-1.422-1.515-3.448-2.462-5.69-2.462c-4.306,0-7.796,3.491-7.796,7.796
	c0,0.611,0.069,1.206,0.202,1.776c-6.479-0.324-12.224-3.429-16.069-8.146c-0.671,1.151-1.056,2.491-1.056,3.92
	c0,2.704,1.376,5.091,3.468,6.489c-1.278-0.041-2.48-0.392-3.531-0.976c0,0.033,0,0.065,0,0.098c0,3.777,2.687,6.929,6.253,7.645
	c-0.654,0.179-1.343,0.274-2.054,0.274c-0.502,0-0.991-0.05-1.467-0.141c0.992,3.098,3.871,5.352,7.283,5.414
	c-2.668,2.092-6.029,3.338-9.682,3.338c-0.629,0-1.25-0.037-1.86-0.109c3.45,2.212,7.548,3.503,11.951,3.503
	c14.34,0,22.182-11.88,22.182-22.182c0-0.338-0.007-0.674-0.022-1.009C116.634,229.499,117.955,228.126,119,226.563z"/>
</svg>
